/* XPM */
static char * fontdecrease[] = {
"22 22 2 1",
" 	g None",
".	g #000000",
"                      ",
"                      ",
"                      ",
"                      ",
"        ..      ...   ",
"        ..      ...   ",
"        ...           ",
"       ....           ",
"       . ..           ",
"       .  ..          ",
"      .   ..          ",
"      .   ...         ",
"     ..   ...         ",
"     ........         ",
"     .      ..        ",
"    .       ..        ",
"    .       ...       ",
"   ...      ...       ",
"  .....    .....      ",
"                      ",
"                      ",
"                      "};
