/* XPM */
static const char *pointer_tool[]={
"16 16 2 1",
". c None",
"# c #000000",
".....#..........",
".....##.........",
".....###........",
".....####.......",
".....#####......",
".....######.....",
".....#######....",
".....########...",
".....#########..",
".....#####......",
".....##.###.....",
".....#..###.....",
".........###....",
".........###....",
"..........###...",
"..........###..."};
