/* XPM */
static const char *zoom_out[]={
"16 16 3 1",
". c None",
"# c #000000",
"a c #ffffff",
".....####.......",
"...##aaaa##.....",
"..#aaaaaaaa#....",
"..#aaaaaaaa#....",
".#aaaaaaaaaa#...",
".#aa######aa#...",
".#aa######aa#...",
".#aaaaaaaaaa#...",
"..#aaaaaaaa#....",
"..#aaaaaaaa#....",
"...##aaaa###....",
".....####.###...",
"...........###..",
"............###.",
".............##.",
"................"};
