/* XPM */
static const char *rangebar_horiz[] = {
/* columns rows colors chars-per-pixel */
"15 15 16 1",
"  c #517191",
". c #517192",
"X c #527293",
"o c #527294",
"O c #537394",
"+ c #537395",
"@ c #55799F",
"# c #557BA1",
"$ c #567CA2",
"% c #567DA4",
"& c #577FA6",
"* c #577FA7",
"= c #648BB3",
"- c #658AB2",
"; c #658BB3",
": c #837867",
/* pixels */
":::::::::::::::",
"--=-=-=-=-=-=-=",
"&&&&**&***&&***",
"&$&$&$$&&$$$$$&",
"$$$$$$$$$$$$$$$",
"##@@$$@@$@$@##$",
"@@@@@@@@@@@@@@#",
".. .....   ....",
"....XXX........",
"XXXXXXXXXXXXXXX",
"XXXXXXXX+XXXXX+",
"+++++++++++X+++",
"++X++++++X+++++",
"====-;-;======-",
":::::::::::::::"
};
