/* XPM */
static const char *rangearrow_up[] = {
/* columns rows colors chars-per-pixel */
"15 15 26 1",
"  c #222222",
". c #232323",
"X c #504F4E",
"o c #5D5C5B",
"O c #62615F",
"+ c #636260",
"@ c #767472",
"# c #787775",
"$ c #837867",
"% c #837968",
"& c #8A806F",
"* c #DFDCD7",
"= c #E0DDD9",
"- c #E7E2DA",
"; c #E6E2DC",
": c #E8E3DB",
"> c #E9E5DF",
", c #EAE5DD",
"< c #E9E6E1",
"1 c #EBE7E0",
"2 c #EDE9E3",
"3 c #EFEBE5",
"4 c #EEEBE6",
"5 c #F1EDE8",
"6 c #F1EEE9",
"7 c #F2EFEA",
/* pixels */
"&%$$$$$$$$$$$$$",
"%7777777732>,:$",
"$7777777332,,:$",
"$77777777322,:$",
"$7777777742>,:$",
"$77777*o*32,,-$",
"$7777<X.X-2,,:$",
"$7774O...O>>,-$",
"$477@.....@>,:$",
"$7777777442>,:$",
"$77777777322,:$",
"$7777777332,,:$",
"$7777777732>,>$",
"$7777777732,,:$",
"$$$$$$$$$$$$$$$"
};
