/* XPM */
static const char *rangegrip_left[] = {
/* columns rows colors chars-per-pixel */
"5 15 14 1",
"  c #517192",
". c #527293",
"X c #527294",
"o c #537395",
"O c #55799F",
"+ c #557BA1",
"@ c #567CA2",
"# c #567DA4",
"$ c #577FA6",
"% c #648BB3",
"& c #658AB2",
"* c #658BB3",
"= c #79A6D6",
"- c #837867",
/* pixels */
"-----",
"-&*&*",
"-*$$$",
"-&###",
"-=@@@",
"-==+@",
"-===O",
"-====",
"-===.",
"-==.X",
"-=XXX",
"-*XXo",
"-*ooo",
"-*&*&",
"-----"
};
