/* XPM */
static const char *rangegroove_vert[] = {
/* columns rows colors chars-per-pixel */
"15 15 8 1",
"  c #837968",
". c #C7BEB1",
"X c #CCC3B6",
"o c #D1C8BA",
"O c #D2C9BB",
"+ c #D6CEC1",
"@ c #DBD3C7",
"# c #DCD4C8",
/* pixels */
" .XO+########@ ",
" .Xo+######### ",
" .Xo+########@ ",
" .Xo+######### ",
" .XO+########@ ",
" .Xo+######### ",
" .XO+########@ ",
" .Xo+######### ",
" .XO+########@ ",
" .Xo+######### ",
" .XO+########@ ",
" .Xo+######### ",
" .XO+######### ",
" .Xo+######### ",
" .XO+########@ "
};
